<mxfile host="app.diagrams.net" modified="2021-03-03T16:41:23.435Z" agent="5.0 (Windows NT 10.0; Win64; x64) AppleWebKit/537.36 (KHTML, like Gecko) Chrome/88.0.4324.111 YaBrowser/21.2.1.107 Yowser/2.5 Safari/537.36" etag="9J99mbZhWiL7t9q6rvV_" version="14.4.3" type="github">
  <diagram id="UFUwRPEJ9SJEd8TAvmAk" name="Page-1">
    <mxGraphModel dx="677" dy="376" grid="1" gridSize="10" guides="1" tooltips="1" connect="1" arrows="1" fold="1" page="1" pageScale="1" pageWidth="827" pageHeight="1169" math="0" shadow="0">
      <root>
        <mxCell id="0" />
        <mxCell id="1" parent="0" />
        <mxCell id="N3bUxBADYNFP1AeT-vm2-4" style="edgeStyle=orthogonalEdgeStyle;rounded=0;orthogonalLoop=1;jettySize=auto;html=1;exitX=1;exitY=0.687;exitDx=0;exitDy=0;exitPerimeter=0;" edge="1" parent="1" source="N3bUxBADYNFP1AeT-vm2-1" target="N3bUxBADYNFP1AeT-vm2-5">
          <mxGeometry relative="1" as="geometry">
            <mxPoint x="480" y="133" as="targetPoint" />
          </mxGeometry>
        </mxCell>
        <mxCell id="N3bUxBADYNFP1AeT-vm2-1" value="id ученика(ключ в json)&lt;br&gt;(дальше идёт новый словарь внутри ключа id)&lt;br&gt;ФИО ученика&lt;br&gt;Класс&lt;br&gt;список дней (2 или 3 элемента, вывел в отдельный блок)&amp;nbsp;" style="rounded=1;whiteSpace=wrap;html=1;align=right;" vertex="1" parent="1">
          <mxGeometry x="40" y="30" width="330" height="150" as="geometry" />
        </mxCell>
        <mxCell id="N3bUxBADYNFP1AeT-vm2-2" style="edgeStyle=orthogonalEdgeStyle;rounded=0;orthogonalLoop=1;jettySize=auto;html=1;exitX=0.5;exitY=1;exitDx=0;exitDy=0;" edge="1" parent="1" source="N3bUxBADYNFP1AeT-vm2-1" target="N3bUxBADYNFP1AeT-vm2-1">
          <mxGeometry relative="1" as="geometry" />
        </mxCell>
        <mxCell id="N3bUxBADYNFP1AeT-vm2-5" value="в каждом дне лежит словарь (в словаре ключ - предмет, по которому ученик писал, а значение - список из грязного и чистого значения). Что и в какой день он писал мы будем знать из другой бд" style="rounded=1;whiteSpace=wrap;html=1;" vertex="1" parent="1">
          <mxGeometry x="120" y="230" width="170" height="110" as="geometry" />
        </mxCell>
        <mxCell id="N3bUxBADYNFP1AeT-vm2-7" style="edgeStyle=orthogonalEdgeStyle;rounded=0;orthogonalLoop=1;jettySize=auto;html=1;" edge="1" parent="1" source="N3bUxBADYNFP1AeT-vm2-6" target="N3bUxBADYNFP1AeT-vm2-5">
          <mxGeometry relative="1" as="geometry">
            <Array as="points">
              <mxPoint x="595" y="330" />
            </Array>
          </mxGeometry>
        </mxCell>
        <mxCell id="N3bUxBADYNFP1AeT-vm2-6" value="словарь предметов&lt;br&gt;он создаётся каждый на каждый год заново&lt;br&gt;тут у нас ключ - имя предмета, значение - номер дня, в который предмет проводится" style="rounded=1;whiteSpace=wrap;html=1;" vertex="1" parent="1">
          <mxGeometry x="470" y="40" width="250" height="200" as="geometry" />
        </mxCell>
      </root>
    </mxGraphModel>
  </diagram>
</mxfile>
